<?xml version="1.0" standalone="no"?>
<!DOCTYPE svg PUBLIC "-//W3C//DTD SVG 20010904//EN"
 "http://www.w3.org/TR/2001/REC-SVG-20010904/DTD/svg10.dtd">
<svg version="1.0" xmlns="http://www.w3.org/2000/svg"
 width="515.000000pt" height="515.000000pt" viewBox="0 0 515.000000 515.000000"
 preserveAspectRatio="xMidYMid meet">
<metadata>
Created by potrace 1.11, written by Peter Selinger 2001-2013
</metadata>
<g transform="translate(0.000000,515.000000) scale(0.100000,-0.100000)"
fill="#000000" stroke="none">
<path d="M2678 5007 c-252 -86 -383 -355 -297 -606 76 -221 309 -355 535 -307
230 48 384 234 384 465 0 129 -39 229 -128 323 -126 135 -320 184 -494 125z"/>
<path d="M1646 4455 c-42 -15 -100 -65 -121 -105 -24 -47 -65 -209 -65 -257 0
-29 8 -65 20 -88 19 -37 20 -41 4 -50 -38 -22 -92 -77 -103 -103 -6 -15 -58
-196 -117 -402 -113 -402 -117 -424 -79 -503 30 -64 71 -86 268 -144 204 -59
257 -64 325 -32 78 38 88 62 208 481 70 248 109 399 108 429 0 27 -9 63 -22
87 l-22 42 29 14 c76 40 138 176 147 326 5 70 3 79 -25 127 -42 70 -83 92
-280 147 -174 49 -213 53 -275 31z"/>
<path d="M2363 4015 c-60 -30 -112 -85 -147 -152 -28 -57 -50 -131 -246 -823
l-151 -534 -93 -601 -93 -600 -285 -440 c-157 -242 -291 -451 -298 -465 -21
-39 -17 -138 7 -185 72 -138 253 -168 356 -59 31 33 623 934 643 979 8 17 52
212 99 435 96 452 93 442 104 435 4 -2 164 -164 354 -358 l347 -354 99 -526
c54 -289 107 -541 116 -561 49 -103 191 -148 296 -93 52 27 104 99 113 154 9
54 -167 1190 -191 1237 -10 19 -194 228 -410 466 -216 237 -390 437 -388 443
2 7 54 219 115 471 61 253 112 461 114 463 4 4 58 -148 140 -392 31 -93 67
-182 79 -197 12 -14 182 -135 377 -269 293 -200 380 -253 447 -275 2 0 -54
-464 -122 -1030 -69 -566 -123 -1039 -120 -1051 11 -48 85 -56 115 -13 14 20
44 247 145 1080 l127 1055 34 33 c41 40 68 123 58 179 -3 21 -17 56 -30 79
-21 37 -22 47 -14 105 20 139 8 179 -57 179 -42 0 -61 -26 -69 -93 -4 -32 -11
-56 -15 -55 -5 2 -123 80 -263 173 l-254 170 -63 180 c-193 560 -236 639 -390
720 -95 50 -314 106 -439 112 -88 4 -99 3 -147 -22z"/>
</g>
</svg>
