<svg data-v-423bf9ae="" xmlns="http://www.w3.org/2000/svg" viewBox="0 0 704 90" class="iconLeft"><!----><!----><!---->
	<g data-v-423bf9ae="" id="e88c91f9-6f19-4315-b2fa-1556ae09c9aa" fill="white" transform="matrix(6.349206447601318,0,0,6.349206447601318,133.6895294189453,15.063493728637695)">
		<path d="M3.82 9.04C3.88 9.25 4.10 9.44 4.31 9.44L4.72 9.44C5.05 9.44 5.28 9.14 5.21 8.82L3.28 0.39C3.23 0.18 3.00 0 2.79 0L2.48 0C2.27 0 2.04 0.18 1.99 0.39L0.71 5.87L0.04 8.83C-0.03 9.16 0.20 9.44 0.53 9.44L0.94 9.44C1.15 9.44 1.37 9.25 1.43 9.04L1.92 6.86L3.35 6.86ZM2.63 3.23C2.90 4.42 2.87 4.80 3.02 5.47L2.24 5.47ZM10.09 8.55C10.09 8.27 9.87 8.05 9.59 8.05L7.50 8.05L7.50 0.50C7.50 0.22 7.28 0 7.01 0L6.61 0C6.33 0 6.10 0.22 6.10 0.50L6.10 8.93C6.10 9.21 6.33 9.44 6.61 9.44L9.59 9.44C9.87 9.44 10.09 9.21 10.09 8.93ZM14.70 9.04C14.76 9.25 14.98 9.44 15.19 9.44L15.60 9.44C15.93 9.44 16.16 9.14 16.09 8.82L14.15 0.39C14.11 0.18 13.87 0 13.66 0L13.36 0C13.15 0 12.92 0.18 12.87 0.39L11.59 5.87L10.92 8.83C10.85 9.16 11.07 9.44 11.41 9.44L11.82 9.44C12.03 9.44 12.25 9.25 12.31 9.04L12.80 6.86L14.22 6.86ZM13.51 3.23C13.78 4.42 13.75 4.80 13.90 5.47L13.12 5.47ZM16.74 6.69C16.74 8.53 17.51 9.42 19.05 9.42C20.54 9.42 21.36 8.58 21.36 7.01C21.36 5.66 20.43 4.94 19.50 4.23L19.52 4.23C18.83 3.70 18.14 3.15 18.14 2.44C18.14 1.71 18.47 1.39 19.05 1.39C19.67 1.39 19.96 1.81 19.96 2.73L19.96 2.93C19.96 3.21 20.19 3.43 20.47 3.43L20.86 3.43C21.14 3.43 21.36 3.21 21.36 2.93L21.36 2.73C21.36 0.95 20.57-0.01 19.05-0.01C17.57-0.01 16.74 0.90 16.74 2.48C16.74 3.86 17.71 4.62 18.63 5.35L18.63 5.33C19.32 5.87 19.96 6.38 19.96 7.04C19.96 7.78 19.64 8.04 19.05 8.04C18.86 8.04 18.62 8.01 18.47 7.85C18.27 7.69 18.14 7.36 18.14 6.69L18.14 6.51C18.14 6.23 17.91 6.01 17.64 6.01L17.25 6.01C16.97 6.01 16.74 6.23 16.74 6.51ZM23.70 3.53L23.70 0.50C23.70 0.22 23.48 0 23.20 0L22.81 0C22.53 0 22.30 0.22 22.30 0.50L22.30 8.93C22.30 9.21 22.53 9.44 22.81 9.44L23.20 9.44C23.48 9.44 23.70 9.21 23.70 8.93L23.70 6.16L23.87 5.91L25.75 9.18C25.82 9.31 26.04 9.44 26.18 9.44L26.63 9.44C27.05 9.44 27.27 9.04 27.08 8.68L24.72 4.54L27.06 0.77C27.29 0.41 27.06 0 26.63 0L26.15 0C26.01 0 25.80 0.13 25.73 0.24ZM31.86 9.04C31.92 9.25 32.14 9.44 32.35 9.44L32.76 9.44C33.10 9.44 33.32 9.14 33.25 8.82L31.32 0.39C31.28 0.18 31.04 0 30.83 0L30.52 0C30.31 0 30.09 0.18 30.03 0.39L28.76 5.87L28.08 8.83C28.01 9.16 28.24 9.44 28.57 9.44L28.98 9.44C29.19 9.44 29.41 9.25 29.47 9.04L29.96 6.86L31.39 6.86ZM30.67 3.23C30.94 4.42 30.91 4.80 31.07 5.47L30.28 5.47ZM38.58 4.03L38.58 0.50C38.58 0.22 38.36 0 38.08 0L37.69 0C37.41 0 37.18 0.22 37.18 0.50L37.18 8.93C37.18 9.21 37.41 9.44 37.69 9.44L38.08 9.44C38.36 9.44 38.58 9.21 38.58 8.93L38.58 5.42L40.14 5.42L40.14 8.93C40.14 9.21 40.36 9.44 40.64 9.44L41.03 9.44C41.31 9.44 41.54 9.21 41.54 8.93L41.54 0.50C41.54 0.22 41.31 0 41.03 0L40.64 0C40.36 0 40.14 0.22 40.14 0.50L40.14 4.03ZM44.04 0.50C44.04 0.22 43.81 0 43.54 0L43.15 0C42.87 0 42.64 0.22 42.64 0.50L42.64 8.93C42.64 9.21 42.87 9.44 43.15 9.44L43.54 9.44C43.81 9.44 44.04 9.21 44.04 8.93ZM46.38 3.53L46.38 0.50C46.38 0.22 46.16 0 45.88 0L45.49 0C45.21 0 44.98 0.22 44.98 0.50L44.98 8.93C44.98 9.21 45.21 9.44 45.49 9.44L45.88 9.44C46.16 9.44 46.38 9.21 46.38 8.93L46.38 6.16L46.55 5.91L48.43 9.18C48.50 9.31 48.72 9.44 48.86 9.44L49.31 9.44C49.73 9.44 49.95 9.04 49.76 8.68L47.40 4.54L49.74 0.77C49.97 0.41 49.74 0 49.31 0L48.83 0C48.69 0 48.48 0.13 48.41 0.24ZM51.23 0C50.95 0 50.72 0.22 50.72 0.50L50.72 8.93C50.72 9.21 50.95 9.44 51.23 9.44L54.25 9.44C54.53 9.44 54.75 9.21 54.75 8.93L54.75 8.55C54.75 8.27 54.53 8.05 54.25 8.05L52.11 8.05L52.11 5.40L53.87 5.40C54.15 5.40 54.38 5.18 54.38 4.90L54.38 4.52C54.38 4.24 54.15 4.02 53.87 4.02L52.11 4.02L52.11 1.39L54.25 1.39C54.53 1.39 54.75 1.16 54.75 0.88L54.75 0.50C54.75 0.22 54.53 0 54.25 0ZM58.62 6.69C58.62 8.53 59.39 9.42 60.93 9.42C62.41 9.42 63.24 8.58 63.24 7.01C63.24 5.66 62.30 4.94 61.38 4.23L61.39 4.23C60.70 3.70 60.02 3.15 60.02 2.44C60.02 1.71 60.34 1.39 60.93 1.39C61.54 1.39 61.84 1.81 61.84 2.73L61.84 2.93C61.84 3.21 62.06 3.43 62.34 3.43L62.73 3.43C63.01 3.43 63.24 3.21 63.24 2.93L63.24 2.73C63.24 0.95 62.44-0.01 60.93-0.01C59.44-0.01 58.62 0.90 58.62 2.48C58.62 3.86 59.58 4.62 60.51 5.35L60.51 5.33C61.19 5.87 61.84 6.38 61.84 7.04C61.84 7.78 61.52 8.04 60.93 8.04C60.73 8.04 60.49 8.01 60.34 7.85C60.14 7.69 60.02 7.36 60.02 6.69L60.02 6.51C60.02 6.23 59.78 6.01 59.51 6.01L59.12 6.01C58.84 6.01 58.62 6.23 58.62 6.51ZM64.68 0C64.40 0 64.18 0.22 64.18 0.50L64.18 8.93C64.18 9.21 64.40 9.44 64.68 9.44L67.70 9.44C67.98 9.44 68.21 9.21 68.21 8.93L68.21 8.55C68.21 8.27 67.98 8.05 67.70 8.05L65.56 8.05L65.56 5.40L67.33 5.40C67.61 5.40 67.83 5.18 67.83 4.90L67.83 4.52C67.83 4.24 67.61 4.02 67.33 4.02L65.56 4.02L65.56 1.39L67.70 1.39C67.98 1.39 68.21 1.16 68.21 0.88L68.21 0.50C68.21 0.22 67.98 0 67.70 0ZM72.38 9.04C72.44 9.25 72.66 9.44 72.87 9.44L73.28 9.44C73.61 9.44 73.84 9.14 73.77 8.82L71.83 0.39C71.79 0.18 71.55 0 71.34 0L71.04 0C70.83 0 70.60 0.18 70.55 0.39L69.27 5.87L68.60 8.83C68.53 9.16 68.75 9.44 69.09 9.44L69.50 9.44C69.71 9.44 69.93 9.25 69.99 9.04L70.48 6.86L71.90 6.86ZM71.19 3.23C71.46 4.42 71.43 4.80 71.58 5.47L70.80 5.47ZM78.83 6.58C78.83 5.85 78.64 5.28 78.23 4.84C78.27 4.80 78.30 4.77 78.34 4.73C78.78 4.30 78.93 3.60 78.93 2.73C78.93 0.85 78.33-0.01 76.61-0.01L74.84-0.01C74.56-0.01 74.34 0.21 74.34 0.49L74.34 8.92C74.34 9.20 74.56 9.42 74.84 9.42L75.24 9.42C75.50 9.42 75.73 9.20 75.73 8.92L75.73 5.49L76.36 5.49C77.04 5.49 77.43 5.88 77.43 6.58L77.43 8.92C77.43 9.20 77.66 9.42 77.94 9.42L78.33 9.42C78.61 9.42 78.83 9.20 78.83 8.92ZM75.73 1.39L76.61 1.39C77.34 1.39 77.55 1.78 77.55 2.73C77.55 3.68 77.14 4.07 76.36 4.07L75.73 4.07ZM79.87 6.69C79.87 7.80 80.18 8.44 80.61 8.88C81.07 9.32 81.65 9.44 82.18 9.44C82.68 9.44 83.27 9.32 83.73 8.88C84.17 8.44 84.46 7.80 84.46 6.69L84.46 6.50C84.46 6.22 84.24 5.99 83.97 5.99L83.57 5.99C83.29 5.99 83.06 6.22 83.06 6.50L83.06 6.69C83.06 7.20 82.99 7.57 82.82 7.80C82.70 7.94 82.45 8.05 82.18 8.05C81.58 8.05 81.28 7.63 81.28 6.69L81.28 2.73C81.28 1.79 81.59 1.39 82.18 1.39C82.75 1.39 83.06 1.79 83.06 2.73L83.06 2.93C83.06 3.21 83.29 3.43 83.57 3.43L83.97 3.43C84.24 3.43 84.46 3.21 84.46 2.93L84.46 2.73C84.46 1.67 84.17 0.97 83.72 0.55C83.26 0.13 82.70 0 82.18 0C81.65 0 81.09 0.13 80.63 0.55C80.18 0.97 79.87 1.67 79.87 2.73ZM86.81 4.03L86.81 0.50C86.81 0.22 86.59 0 86.31 0L85.92 0C85.64 0 85.41 0.22 85.41 0.50L85.41 8.93C85.41 9.21 85.64 9.44 85.92 9.44L86.31 9.44C86.59 9.44 86.81 9.21 86.81 8.93L86.81 5.42L88.37 5.42L88.37 8.93C88.37 9.21 88.59 9.44 88.87 9.44L89.26 9.44C89.54 9.44 89.77 9.21 89.77 8.93L89.77 0.50C89.77 0.22 89.54 0 89.26 0L88.87 0C88.59 0 88.37 0.22 88.37 0.50L88.37 4.03Z"></path></g><!---->
	<g data-v-423bf9ae="" id="84ae600e-f9ce-4664-bee1-4fbb4e3ad764" fill="#EDE04E" transform="matrix(1.9639780521392822,0,0,1.9639780521392822,-13.691208839416504,-22.446897506713867)" stroke="none">
		<path d="M8.193 57.7a1.181 1.181 0 0 1-1.181-1.18V20.88c0-.475.285-.903.722-1.088l18.538-7.824a1.18 1.18 0 0 1 1.64 1.088v35.64c0 .475-.285.903-.722 1.088L8.652 57.607a1.166 1.166 0 0 1-.459.093zm1.181-36.036V54.74l16.175-6.826V14.837L9.374 21.664zM45.268 57.7c-.229 0-.456-.066-.653-.196a1.183 1.183 0 0 1-.527-.984V20.88c0-.475.284-.903.722-1.088l18.539-7.824a1.182 1.182 0 0 1 1.639 1.088v35.64c0 .475-.284.903-.722 1.088l-18.539 7.823a1.17 1.17 0 0 1-.459.093zm1.18-36.036v33.075l16.178-6.826V14.837l-16.178 6.827z"></path><path d="M45.268 57.7c-.155 0-.312-.03-.459-.093l-18.537-7.823a1.18 1.18 0 0 1-.722-1.088v-35.64a1.18 1.18 0 0 1 1.64-1.088l18.537 7.824c.438.185.722.613.722 1.088v35.64a1.18 1.18 0 0 1-1.181 1.18zm-17.356-9.787l16.175 6.826V21.664l-16.175-6.827v33.076zM59.129 28.524a.96.96 0 0 1-.679-.281l-5.446-5.448a.96.96 0 0 1 1.357-1.357l5.446 5.448a.96.96 0 0 1-.678 1.638z"></path><path d="M53.683 28.524a.961.961 0 0 1-.679-1.638l5.446-5.448a.959.959 0 1 1 1.357 1.357l-5.446 5.448a.953.953 0 0 1-.678.281zM47.516 50.307a6.101 6.101 0 0 1-1.738-.255.959.959 0 1 1 .55-1.838c.91.271 1.928.22 2.813-.158a.96.96 0 0 1 .756 1.764 6.012 6.012 0 0 1-2.381.487zm-35.61-1.828a.96.96 0 0 1-.959-.96v-3.543a.96.96 0 0 1 1.918 0v3.543a.959.959 0 0 1-.959.96zm31.364-.459a.956.956 0 0 1-.801-.431 6.01 6.01 0 0 1-1-3.33v-.576a.96.96 0 0 1 1.92 0v.576c0 .813.235 1.599.68 2.271a.957.957 0 0 1-.271 1.329.948.948 0 0 1-.528.161zm8.782-.496a.96.96 0 0 1-.855-1.395 4.066 4.066 0 0 0 .446-1.869v-1.15a.96.96 0 0 1 1.92 0v1.149A5.984 5.984 0 0 1 52.908 47a.96.96 0 0 1-.856.524zm-24.885-3.086c-.13 0-.26-.005-.389-.013a.959.959 0 0 1-.897-1.019c.033-.528.498-.917 1.018-.897a4.132 4.132 0 0 0 2.706-.786.96.96 0 0 1 1.134 1.549 6.008 6.008 0 0 1-3.572 1.166zm-3.507-1.403a.957.957 0 0 1-.662-.265 6.05 6.05 0 0 1-1.838-3.695.96.96 0 0 1 .846-1.061.95.95 0 0 1 1.061.846 4.13 4.13 0 0 0 1.254 2.521.958.958 0 0 1-.661 1.654zm-11.754-1.642a.96.96 0 0 1-.959-.96V36.89a.96.96 0 0 1 1.918 0v3.543a.959.959 0 0 1-.959.96zm30.523-.293a.96.96 0 0 1-.96-.96v-3.542a.96.96 0 0 1 1.92 0v3.542c0 .53-.43.96-.96.96zm-10.323-.524a.958.958 0 0 1-.932-1.189c.08-.323.12-.658.12-.995v-2.306a.96.96 0 0 1 1.918 0v2.306c0 .491-.059.98-.176 1.454a.958.958 0 0 1-.93.73zm20.498-.05a.96.96 0 0 1-.96-.96v-3.543a.96.96 0 0 1 1.92 0v3.543a.96.96 0 0 1-.96.96zm-30.523-4.14a.96.96 0 0 1-.959-.959v-3.543a.96.96 0 0 1 1.918 0v3.543a.959.959 0 0 1-.959.959zm-10.175-2.08a.96.96 0 0 1-.959-.959v-3.543a.96.96 0 0 1 1.918 0v3.543a.959.959 0 0 1-.959.959zm30.523-.292a.96.96 0 0 1-.96-.959v-3.543a.96.96 0 0 1 1.92 0v3.543a.96.96 0 0 1-.96.959zm-10.176-.512a.96.96 0 0 1-.959-.959V29a.96.96 0 0 1 1.918 0v3.543a.959.959 0 0 1-.959.959zm20.351-.062a.96.96 0 0 1-.96-.959v-1.94a.96.96 0 0 1 1.92 0v1.94a.96.96 0 0 1-.96.959zM22.081 29.3a.96.96 0 0 1-.959-.959v-1.904c0-.448-.071-.888-.211-1.306a.96.96 0 0 1 1.82-.608c.206.616.31 1.26.31 1.915v1.904a.96.96 0 0 1-.96.958zM11.91 27.221h-.033a.96.96 0 0 1-.926-.992 6.046 6.046 0 0 1 1.541-3.827.96.96 0 0 1 1.429 1.281 4.125 4.125 0 0 0-1.052 2.611.96.96 0 0 1-.959.927zm29.955-.201a.96.96 0 0 1-.854-.52 4.149 4.149 0 0 0-2.068-1.914.961.961 0 0 1-.513-1.257.964.964 0 0 1 1.257-.512 6.059 6.059 0 0 1 3.029 2.801.96.96 0 0 1-.851 1.402zm-8.789-.443a.96.96 0 0 1-.802-1.484 6.067 6.067 0 0 1 3.294-2.483.96.96 0 0 1 .563 1.835 4.143 4.143 0 0 0-2.25 1.697.961.961 0 0 1-.805.435zm-13.413-3.512a.954.954 0 0 1-.503-.143 4.199 4.199 0 0 0-2.759-.57.96.96 0 0 1-.273-1.899 6.135 6.135 0 0 1 4.04.837.96.96 0 0 1-.505 1.775z"></path></g><!----></svg>